<svg width="1034" height="468" viewBox="0 0 1034 468" fill="none" xmlns="http://www.w3.org/2000/svg">
<path d="M294.752 381.293L313.209 430.336L331.622 381.293H345.992V445.277H334.918V424.184L336.017 395.971L317.12 445.277H309.166L290.313 396.015L291.412 424.184V445.277H280.338V381.293H294.752ZM369.503 445.277H358.824V397.729H369.503V445.277ZM358.165 385.38C358.165 383.739 358.678 382.377 359.703 381.293C360.758 380.209 362.252 379.667 364.186 379.667C366.119 379.667 367.613 380.209 368.668 381.293C369.723 382.377 370.25 383.739 370.25 385.38C370.25 386.991 369.723 388.339 368.668 389.423C367.613 390.478 366.119 391.005 364.186 391.005C362.252 391.005 360.758 390.478 359.703 389.423C358.678 388.339 358.165 386.991 358.165 385.38ZM379.171 421.063C379.171 416.405 380.094 412.216 381.939 408.495C383.785 404.745 386.378 401.874 389.718 399.882C393.058 397.86 396.896 396.85 401.231 396.85C407.647 396.85 412.848 398.915 416.832 403.046C420.846 407.177 423.014 412.655 423.336 419.481L423.38 421.986C423.38 426.674 422.472 430.863 420.655 434.555C418.868 438.246 416.29 441.103 412.921 443.124C409.581 445.146 405.714 446.156 401.319 446.156C394.61 446.156 389.234 443.93 385.191 439.477C381.178 434.994 379.171 429.032 379.171 421.591V421.063ZM389.85 421.986C389.85 426.879 390.86 430.717 392.882 433.5C394.903 436.254 397.716 437.631 401.319 437.631C404.923 437.631 407.721 436.225 409.713 433.412C411.734 430.6 412.745 426.483 412.745 421.063C412.745 416.259 411.705 412.45 409.625 409.638C407.574 406.825 404.776 405.419 401.231 405.419C397.745 405.419 394.977 406.811 392.926 409.594C390.875 412.348 389.85 416.479 389.85 421.986ZM433.443 445.277V381.293H452.34C457.994 381.293 463.004 382.553 467.369 385.072C471.764 387.592 475.162 391.166 477.564 395.795C479.967 400.424 481.168 405.727 481.168 411.703V414.911C481.168 420.976 479.952 426.308 477.521 430.907C475.118 435.507 471.676 439.052 467.193 441.542C462.74 444.032 457.628 445.277 451.856 445.277H433.443ZM444.562 390.258V436.4H451.812C457.643 436.4 462.11 434.584 465.216 430.951C468.351 427.289 469.947 422.045 470.006 415.219V411.659C470.006 404.716 468.497 399.413 465.479 395.751C462.462 392.089 458.082 390.258 452.34 390.258H444.562ZM489.21 421.063C489.21 416.405 490.133 412.216 491.979 408.495C493.824 404.745 496.417 401.874 499.757 399.882C503.097 397.86 506.935 396.85 511.271 396.85C517.687 396.85 522.887 398.915 526.871 403.046C530.885 407.177 533.053 412.655 533.375 419.481L533.419 421.986C533.419 426.674 532.511 430.863 530.694 434.555C528.907 438.246 526.329 441.103 522.96 443.124C519.62 445.146 515.753 446.156 511.358 446.156C504.649 446.156 499.273 443.93 495.23 439.477C491.217 434.994 489.21 429.032 489.21 421.591V421.063ZM499.889 421.986C499.889 426.879 500.899 430.717 502.921 433.5C504.942 436.254 507.755 437.631 511.358 437.631C514.962 437.631 517.76 436.225 519.752 433.412C521.773 430.6 522.784 426.483 522.784 421.063C522.784 416.259 521.744 412.45 519.664 409.638C517.613 406.825 514.815 405.419 511.271 405.419C507.784 405.419 505.016 406.811 502.965 409.594C500.914 412.348 499.889 416.479 499.889 421.986ZM555.831 386.171V397.729H564.225V405.639H555.831V432.182C555.831 433.998 556.183 435.316 556.886 436.137C557.618 436.928 558.907 437.323 560.753 437.323C561.983 437.323 563.229 437.177 564.488 436.884V445.146C562.057 445.819 559.713 446.156 557.457 446.156C549.254 446.156 545.152 441.63 545.152 432.577V405.639H537.33V397.729H545.152V386.171H555.831ZM585.802 386.171V397.729H594.195V405.639H585.802V432.182C585.802 433.998 586.153 435.316 586.856 436.137C587.589 436.928 588.878 437.323 590.724 437.323C591.954 437.323 593.199 437.177 594.459 436.884V445.146C592.027 445.819 589.684 446.156 587.428 446.156C579.225 446.156 575.123 441.63 575.123 432.577V405.639H567.301V397.729H575.123V386.171H585.802ZM599.073 421.063C599.073 416.405 599.996 412.216 601.842 408.495C603.688 404.745 606.28 401.874 609.62 399.882C612.96 397.86 616.798 396.85 621.134 396.85C627.55 396.85 632.75 398.915 636.734 403.046C640.748 407.177 642.916 412.655 643.238 419.481L643.282 421.986C643.282 426.674 642.374 430.863 640.558 434.555C638.771 438.246 636.192 441.103 632.823 443.124C629.483 445.146 625.616 446.156 621.222 446.156C614.513 446.156 609.137 443.93 605.094 439.477C601.08 434.994 599.073 429.032 599.073 421.591V421.063ZM609.752 421.986C609.752 426.879 610.763 430.717 612.784 433.5C614.806 436.254 617.618 437.631 621.222 437.631C624.825 437.631 627.623 436.225 629.615 433.412C631.637 430.6 632.647 426.483 632.647 421.063C632.647 416.259 631.607 412.45 629.527 409.638C627.477 406.825 624.679 405.419 621.134 405.419C617.647 405.419 614.879 406.811 612.828 409.594C610.777 412.348 609.752 416.479 609.752 421.986ZM677.208 407.484C675.802 407.25 674.352 407.133 672.857 407.133C667.965 407.133 664.669 409.008 662.97 412.758V445.277H652.291V397.729H662.486L662.75 403.046C665.328 398.915 668.902 396.85 673.473 396.85C674.996 396.85 676.256 397.055 677.252 397.465L677.208 407.484ZM704.015 446.156C697.247 446.156 691.754 444.032 687.535 439.784C683.346 435.507 681.251 429.823 681.251 422.733V421.415C681.251 416.669 682.159 412.436 683.976 408.715C685.821 404.965 688.399 402.05 691.71 399.97C695.021 397.89 698.712 396.85 702.784 396.85C709.259 396.85 714.254 398.915 717.77 403.046C721.314 407.177 723.087 413.021 723.087 420.58V424.887H692.018C692.34 428.812 693.644 431.918 695.929 434.203C698.243 436.488 701.144 437.631 704.63 437.631C709.522 437.631 713.507 435.653 716.583 431.698L722.34 437.191C720.436 440.033 717.887 442.245 714.693 443.827C711.529 445.38 707.97 446.156 704.015 446.156ZM702.74 405.419C699.811 405.419 697.438 406.444 695.621 408.495C693.834 410.546 692.691 413.402 692.193 417.064H712.54V416.273C712.306 412.699 711.354 410.004 709.684 408.188C708.014 406.342 705.699 405.419 702.74 405.419ZM782.105 432.665C782.105 430.468 781.271 428.769 779.601 427.567C777.96 426.337 775.074 425.282 770.943 424.403C766.842 423.524 763.575 422.47 761.144 421.239C758.741 420.009 756.954 418.544 755.782 416.845C754.64 415.146 754.068 413.124 754.068 410.78C754.068 406.884 755.709 403.588 758.99 400.893C762.301 398.197 766.52 396.85 771.646 396.85C777.037 396.85 781.402 398.241 784.742 401.024C788.111 403.808 789.796 407.367 789.796 411.703H781.622C781.622 409.477 780.67 407.558 778.766 405.946C776.891 404.335 774.518 403.529 771.646 403.529C768.688 403.529 766.373 404.174 764.703 405.463C763.033 406.752 762.198 408.437 762.198 410.517C762.198 412.479 762.975 413.959 764.527 414.955C766.08 415.951 768.878 416.903 772.921 417.812C776.993 418.72 780.289 419.804 782.809 421.063C785.328 422.323 787.188 423.847 788.39 425.634C789.62 427.392 790.235 429.545 790.235 432.094C790.235 436.342 788.536 439.755 785.138 442.333C781.739 444.882 777.33 446.156 771.91 446.156C768.102 446.156 764.732 445.482 761.803 444.135C758.873 442.787 756.573 440.912 754.903 438.51C753.263 436.078 752.442 433.456 752.442 430.644H760.572C760.719 433.368 761.803 435.536 763.824 437.147C765.875 438.729 768.57 439.521 771.91 439.521C774.986 439.521 777.447 438.905 779.293 437.675C781.168 436.415 782.105 434.745 782.105 432.665ZM820.558 446.156C814.112 446.156 808.868 444.047 804.825 439.828C800.782 435.58 798.761 429.911 798.761 422.821V421.327C798.761 416.61 799.654 412.406 801.441 408.715C803.258 404.994 805.777 402.094 809 400.014C812.252 397.904 815.768 396.85 819.547 396.85C825.729 396.85 830.533 398.886 833.961 402.958C837.389 407.03 839.103 412.86 839.103 420.448V423.832H806.891C807.008 428.52 808.37 432.313 810.978 435.214C813.614 438.085 816.954 439.521 820.997 439.521C823.868 439.521 826.3 438.935 828.292 437.763C830.284 436.591 832.027 435.038 833.521 433.104L838.487 436.972C834.503 443.095 828.526 446.156 820.558 446.156ZM819.547 403.529C816.266 403.529 813.512 404.73 811.285 407.133C809.059 409.506 807.682 412.846 807.154 417.152H830.973V416.537C830.738 412.406 829.625 409.213 827.633 406.957C825.641 404.672 822.945 403.529 819.547 403.529ZM871.534 405.023C870.304 404.818 868.971 404.716 867.535 404.716C862.203 404.716 858.585 406.986 856.681 411.527V445.277H848.551V397.729H856.461L856.593 403.222C859.259 398.974 863.038 396.85 867.931 396.85C869.513 396.85 870.714 397.055 871.534 397.465V405.023ZM895.528 434.247L907.306 397.729H915.611L898.561 445.277H892.364L875.138 397.729H883.443L895.528 434.247ZM932.267 445.277H924.137V397.729H932.267V445.277ZM923.478 385.116C923.478 383.798 923.873 382.685 924.664 381.776C925.484 380.868 926.686 380.414 928.268 380.414C929.85 380.414 931.051 380.868 931.871 381.776C932.691 382.685 933.102 383.798 933.102 385.116C933.102 386.435 932.691 387.533 931.871 388.412C931.051 389.291 929.85 389.73 928.268 389.73C926.686 389.73 925.484 389.291 924.664 388.412C923.873 387.533 923.478 386.435 923.478 385.116ZM964.391 439.521C967.291 439.521 969.825 438.642 971.993 436.884C974.161 435.126 975.362 432.929 975.597 430.292H983.287C983.141 433.017 982.203 435.609 980.475 438.07C978.746 440.531 976.432 442.494 973.531 443.959C970.66 445.424 967.613 446.156 964.391 446.156C957.916 446.156 952.76 444.003 948.922 439.696C945.113 435.36 943.209 429.442 943.209 421.942V420.58C943.209 415.951 944.059 411.835 945.758 408.231C947.457 404.628 949.889 401.83 953.053 399.838C956.246 397.846 960.011 396.85 964.347 396.85C969.679 396.85 974.103 398.446 977.618 401.64C981.163 404.833 983.053 408.979 983.287 414.076H975.597C975.362 411 974.19 408.48 972.081 406.518C970.001 404.525 967.423 403.529 964.347 403.529C960.216 403.529 957.008 405.023 954.723 408.012C952.467 410.971 951.339 415.263 951.339 420.888V422.426C951.339 427.904 952.467 432.123 954.723 435.082C956.979 438.041 960.201 439.521 964.391 439.521ZM1012.16 446.156C1005.71 446.156 1000.47 444.047 996.427 439.828C992.384 435.58 990.362 429.911 990.362 422.821V421.327C990.362 416.61 991.256 412.406 993.043 408.715C994.859 404.994 997.379 402.094 1000.6 400.014C1003.85 397.904 1007.37 396.85 1011.15 396.85C1017.33 396.85 1022.13 398.886 1025.56 402.958C1028.99 407.03 1030.7 412.86 1030.7 420.448V423.832H998.492C998.609 428.52 999.972 432.313 1002.58 435.214C1005.22 438.085 1008.56 439.521 1012.6 439.521C1015.47 439.521 1017.9 438.935 1019.89 437.763C1021.89 436.591 1023.63 435.038 1025.12 433.104L1030.09 436.972C1026.1 443.095 1020.13 446.156 1012.16 446.156ZM1011.15 403.529C1007.87 403.529 1005.11 404.73 1002.89 407.133C1000.66 409.506 999.283 412.846 998.756 417.152H1022.57V416.537C1022.34 412.406 1021.23 409.213 1019.23 406.957C1017.24 404.672 1014.55 403.529 1011.15 403.529Z" fill="#868686"/>
<path d="M647.695 331.713V233.808C647.695 219.553 643.884 208.12 636.311 199.408C628.688 190.697 617.601 186.341 602.999 186.341C594.486 186.341 587.061 187.974 580.627 191.241C574.192 194.508 568.847 198.913 564.491 204.457C560.135 210 556.868 216.336 554.69 223.464C552.513 230.591 551.424 238.115 551.424 245.985V331.763H539V179.213H551.424V214.455C555.383 201.636 562.164 191.934 571.866 185.45C581.518 178.917 592.902 175.699 605.92 175.699C622.699 175.699 635.915 180.599 645.616 190.35C655.268 200.101 660.119 213.416 660.119 230.195V331.763H647.695V331.713Z" fill="#868686"/>
<path d="M798.046 320.18C786.513 330.228 771.912 335.277 754.39 335.277C743.352 335.277 733.502 333.198 724.939 329.04C716.376 324.883 709.1 319.339 703.21 312.31C697.32 305.282 692.816 297.164 689.747 287.859C686.678 278.603 685.094 268.704 685.094 258.26C685.094 247.024 686.579 236.382 689.598 226.434C692.568 216.485 697.072 207.724 703.062 200.25C709.051 192.776 716.574 186.787 725.682 182.332C734.74 177.877 745.332 175.65 757.36 175.65C765.279 175.65 772.654 176.838 779.584 179.214C786.513 181.59 792.651 184.955 798.095 189.262C803.54 193.617 807.945 198.963 811.41 205.348C814.875 211.733 817.102 218.91 818.092 226.78L698.161 270.535C699.151 278.009 701.082 285.038 703.953 291.522C706.823 298.006 710.585 303.748 715.188 308.648C719.841 313.597 725.434 317.458 732.067 320.329C738.65 323.2 746.124 324.635 754.439 324.635C761.319 324.635 767.803 323.546 773.842 321.368C779.881 319.191 785.177 316.072 789.829 312.063C794.482 308.004 798.145 303.203 800.917 297.56C803.689 291.918 805.371 285.582 805.965 278.455H818.092C816.261 296.175 809.579 310.083 798.046 320.18ZM787.949 195.795C779.584 189.459 769.437 186.341 757.607 186.341C747.163 186.341 738.155 188.272 730.631 192.132C723.157 195.993 716.97 201.091 712.12 207.526C707.269 213.96 703.606 221.335 701.181 229.75C698.706 238.164 697.468 246.975 697.468 256.231V261.279L804.679 222.177C801.907 210.892 796.363 202.131 787.949 195.795Z" fill="#868686"/>
<path d="M945.488 331.713L900.198 271.03L854.859 331.713H833.229L889.21 255.29L833.279 179.214H854.612L900.198 239.897L945.488 179.214H966.821L910.84 255.29L966.821 331.713H945.488V331.713Z" fill="#4EC1F0"/>
<path d="M1016.33 188.965V331.714H1003.9V188.965H987.917V179.214H1003.9V140.112L1016.33 126.5V179.214H1032.32V188.965H1016.33Z" fill="#868686"/>
<path d="M143.771 333.557C143.771 343.209 142.484 352.019 139.91 359.889C137.336 367.809 133.327 374.54 127.932 380.183C122.487 385.826 115.508 390.132 106.896 393.201C98.3326 396.269 88.0868 397.804 76.2571 397.804C68.1396 397.804 60.4181 396.962 53.0431 395.28C45.6185 393.597 39.0355 390.825 33.1949 387.014C27.3542 383.153 22.652 378.154 18.9893 371.917C15.3265 365.68 13.1982 358.058 12.6042 348.951H31.5615C31.9574 355.088 33.4423 360.384 36.0162 364.938C38.59 369.492 41.8568 373.253 45.767 376.174C49.7268 379.144 54.231 381.321 59.3787 382.707C64.5263 384.093 69.9215 384.786 75.6631 384.786C91.8485 384.786 104.074 380.381 112.39 371.62C120.656 362.81 124.813 350.534 124.813 334.745V308.116C119.468 316.827 112.241 323.509 103.183 328.261C94.0759 333.013 83.6321 335.388 71.8023 335.388C60.7646 335.388 50.8157 333.409 42.0548 329.449C33.2444 325.489 25.8198 320.044 19.6822 313.016C13.5446 305.987 8.84243 297.82 5.47665 288.465C2.11087 279.111 0.427979 268.964 0.427979 258.124C0.427979 246.888 2.01188 236.197 5.17967 226.149C8.34746 216.101 13.0497 207.291 19.2368 199.767C25.4734 192.293 33.1948 186.354 42.5002 181.998C51.8056 177.642 62.4475 175.464 74.4752 175.464C84.7705 175.464 94.3729 177.543 103.381 181.701C112.34 185.859 119.418 192.046 124.566 200.361V179.325H143.82V333.904V333.557H143.771ZM124.863 228.426C124.863 223.08 123.428 218.131 120.557 213.478C117.686 208.825 113.924 204.865 109.321 201.5C104.668 198.134 99.57 195.461 93.9274 193.481C88.2848 191.501 82.8401 190.511 77.4945 190.511C66.8527 190.511 57.7948 192.491 50.4197 196.451C42.9952 200.411 37.0556 205.558 32.5019 211.844C27.9482 218.18 24.6814 225.357 22.751 233.475C20.7712 241.592 19.7812 249.759 19.7812 258.074C19.7812 266.588 20.9196 274.606 23.1965 282.229C25.4734 289.802 28.9381 296.434 33.5413 302.077C38.194 307.72 43.8862 312.125 50.7167 315.392C57.5473 318.659 65.5658 320.292 74.8711 320.292C81.2067 320.292 87.3443 319.302 93.3829 317.322C99.4216 315.342 104.668 312.521 109.222 308.908C113.776 305.245 117.438 300.84 120.309 295.593C123.18 290.396 124.615 284.407 124.615 277.675L124.863 228.426Z" fill="#4EC1F0"/>
<path d="M167.54 331.775V179.276H186.795V331.775H167.54Z" fill="#4EC1F0"/>
<path d="M355.639 258.025C355.639 268.865 353.956 279.012 350.64 288.367C347.274 297.722 342.572 305.938 336.434 312.917C330.297 319.946 322.823 325.39 313.913 329.35C305.053 333.31 295.154 335.29 284.314 335.29C272.484 335.29 261.991 332.914 252.933 328.162C243.875 323.41 236.748 316.728 231.6 308.017V392.706H212.346V179.276H231.303V200.312C236.649 192.046 243.776 185.809 252.785 181.652C261.793 177.494 271.395 175.415 281.641 175.415C293.669 175.415 304.36 177.593 313.616 181.949C322.872 186.304 330.643 192.194 336.88 199.718C343.116 207.241 347.769 216.002 350.937 226.1C354.055 236.148 355.639 246.789 355.639 258.025ZM336.385 258.025C336.385 249.71 335.395 241.543 333.415 233.425C331.435 225.357 328.168 218.131 323.664 211.795C319.11 205.509 313.171 200.361 305.746 196.402C298.322 192.442 289.313 190.462 278.622 190.462C273.276 190.462 267.832 191.452 262.189 193.432C256.546 195.412 251.399 198.085 246.795 201.45C242.143 204.816 238.431 208.825 235.56 213.429C232.689 218.081 231.253 223.031 231.253 228.377V277.527C231.253 284.258 232.689 290.198 235.56 295.445C238.431 300.691 242.192 305.146 246.795 308.759C251.448 312.422 256.744 315.243 262.783 317.174C268.822 319.154 274.959 320.144 281.295 320.144C290.353 320.144 298.371 318.51 305.251 315.243C312.181 311.977 317.922 307.522 322.575 301.929C327.228 296.336 330.692 289.703 332.92 282.081C335.296 274.557 336.385 266.539 336.385 258.025Z" fill="#4EC1F0"/>
<path d="M515.92 255.352C515.92 265.846 514.386 275.894 511.317 285.545C508.248 295.247 503.645 303.76 497.557 311.185C491.419 318.609 483.896 324.45 474.888 328.806C465.879 333.161 455.386 335.339 443.358 335.339C431.528 335.339 421.035 333.161 411.977 328.806C402.87 324.45 395.346 318.609 389.308 311.185C383.269 303.76 378.765 295.247 375.696 285.545C372.627 275.894 371.093 265.796 371.093 255.352C371.093 244.909 372.627 234.861 375.696 225.308C378.765 215.755 383.269 207.241 389.308 199.866C395.346 192.442 402.87 186.552 411.977 182.097C421.085 177.642 431.627 175.415 443.655 175.415C455.485 175.415 465.978 177.642 475.036 182.097C484.143 186.552 491.667 192.442 497.706 199.866C503.744 207.291 508.248 215.755 511.317 225.308C514.386 234.91 515.92 244.909 515.92 255.352ZM496.666 255.352C496.666 247.284 495.577 239.315 493.399 231.495C491.221 223.674 488.004 216.794 483.648 210.756C479.342 204.717 473.799 199.866 467.117 196.105C460.434 192.343 452.663 190.462 443.804 190.462C434.746 190.462 426.876 192.343 420.194 196.105C413.512 199.866 407.918 204.717 403.513 210.756C399.108 216.794 395.792 223.674 393.614 231.495C391.436 239.315 390.347 247.235 390.347 255.352C390.347 263.668 391.436 271.637 393.614 279.358C395.792 287.08 399.058 293.96 403.513 300.097C407.918 306.235 413.512 311.086 420.194 314.748C426.876 318.411 434.746 320.243 443.804 320.243C452.663 320.243 460.434 318.411 467.117 314.748C473.799 311.086 479.342 306.285 483.648 300.246C488.004 294.207 491.221 287.327 493.399 279.507C495.627 271.736 496.666 263.668 496.666 255.352Z" fill="#4EC1F0"/>
<path d="M189.863 138.49C189.863 145.618 184.121 151.359 176.994 151.359C169.866 151.359 164.125 145.618 164.125 138.49C164.125 131.363 169.916 125.621 176.994 125.621C184.072 125.621 189.863 131.363 189.863 138.49Z" fill="#40BFEF"/>
<path opacity="0.4" d="M189.269 13.8574C189.269 20.985 183.478 26.7266 176.4 26.7266C169.272 26.7266 163.531 20.9355 163.531 13.8574C163.531 6.72991 169.272 0.988281 176.4 0.988281C183.478 0.988281 189.269 6.77941 189.269 13.8574Z" fill="#40BFEF"/>
<path opacity="0.7" d="M252.625 76.0259C252.625 83.1534 246.833 88.8951 239.755 88.8951C232.628 88.8951 226.886 83.1039 226.886 76.0259C226.886 68.9479 232.677 63.1567 239.755 63.1567C246.833 63.1567 252.625 68.8984 252.625 76.0259Z" fill="#40BFEF"/>
<path opacity="0.15" d="M127.497 75.9764C127.497 83.104 121.706 88.8456 114.578 88.8456C107.451 88.8456 101.709 83.104 101.709 75.9764C101.709 68.8489 107.5 63.1072 114.578 63.1072C121.706 63.0578 127.497 68.8489 127.497 75.9764Z" fill="#40BFEF"/>
<path opacity="0.1" d="M136.011 107.407C136.011 114.534 130.219 120.276 123.141 120.276C116.014 120.276 110.272 114.485 110.272 107.407C110.272 100.329 116.063 94.5376 123.141 94.5376C130.219 94.5376 136.011 100.279 136.011 107.407Z" fill="#40BFEF"/>
<path opacity="0.2" d="M135.911 45.0405C135.911 52.1681 130.12 57.9097 123.042 57.9097C115.915 57.9097 110.173 52.1681 110.173 45.0405C110.173 37.913 115.964 32.1714 123.042 32.1714C130.17 32.1714 135.911 37.913 135.911 45.0405Z" fill="#40BFEF"/>
<path opacity="0.8" d="M243.765 107.159C243.765 114.286 238.023 120.028 230.896 120.028C223.768 120.028 218.027 114.237 218.027 107.159C218.027 100.081 223.768 94.2896 230.896 94.2896C238.023 94.2896 243.765 100.081 243.765 107.159Z" fill="#40BFEF"/>
<path opacity="0.6" d="M243.815 44.8425C243.815 51.97 238.023 57.7116 230.945 57.7116C223.818 57.7116 218.076 51.97 218.076 44.8425C218.076 37.7149 223.867 31.9238 230.945 31.9238C238.023 31.9238 243.815 37.7149 243.815 44.8425Z" fill="#40BFEF"/>
<path opacity="0.05" d="M158.631 130.027C158.631 137.154 152.84 142.896 145.761 142.896C138.634 142.896 132.892 137.105 132.892 130.027C132.892 122.949 138.683 117.158 145.761 117.158C152.84 117.108 158.631 122.899 158.631 130.027Z" fill="#40BFEF"/>
<path opacity="0.3" d="M158.729 22.2232C158.729 29.3507 152.938 35.0923 145.811 35.0923C138.683 35.0923 132.941 29.3012 132.941 22.2232C132.941 15.0956 138.733 9.354 145.811 9.354C152.988 9.354 158.729 15.0956 158.729 22.2232Z" fill="#40BFEF"/>
<path opacity="0.9" d="M220.996 130.026C220.996 137.154 215.255 142.896 208.127 142.896C201 142.896 195.258 137.104 195.258 130.026C195.258 122.899 201 117.157 208.127 117.157C215.255 117.157 220.996 122.899 220.996 130.026Z" fill="#40BFEF"/>
<path opacity="0.5" d="M221.096 22.1729C221.096 29.3004 215.354 35.042 208.226 35.042C201.099 35.042 195.357 29.2509 195.357 22.1729C195.357 15.0453 201.099 9.30371 208.226 9.30371C215.354 9.30371 221.096 15.0453 221.096 22.1729Z" fill="#40BFEF"/>
</svg>
